<svg width="24" height="24" viewBox="0 0 24 24"
     xmlns="http://www.w3.org/2000/svg">
  <path fill="currentColor" fill-rule="evenodd" d="
    M4.8 2H8.2A2.8 2.8 0 0 1 11 4.8V8.2A2.8 2.8 0 0 1 8.2 11H4.8A2.8 2.8 0 0 1 2 8.2V4.8A2.8 2.8 0 0 1 4.8 2Z
    M4.8 4A0.8 0.8 0 0 0 4 4.8V8.2A0.8 0.8 0 0 0 4.8 9H8.2A0.8 0.8 0 0 0 9 8.2V4.8A0.8 0.8 0 0 0 8.2 4H4.8Z
    M15.8 2H19.2A2.8 2.8 0 0 1 22 4.8V8.2A2.8 2.8 0 0 1 19.2 11H15.8A2.8 2.8 0 0 1 13 8.2V4.8A2.8 2.8 0 0 1 15.8 2Z
    M15.8 4A0.8 0.8 0 0 0 15 4.8V8.2A0.8 0.8 0 0 0 15.8 9H19.2A0.8 0.8 0 0 0 20 8.2V4.8A0.8 0.8 0 0 0 19.2 4H15.8Z
    M4.8 13H8.2A2.8 2.8 0 0 1 11 15.8V19.2A2.8 2.8 0 0 1 8.2 22H4.8A2.8 2.8 0 0 1 2 19.2V15.8A2.8 2.8 0 0 1 4.8 13Z
    M4.8 15A0.8 0.8 0 0 0 4 15.8V19.2A0.8 0.8 0 0 0 4.8 20H8.2A0.8 0.8 0 0 0 9 19.2V15.8A0.8 0.8 0 0 0 8.2 15H4.8Z
    M15.8 13H19.2A2.8 2.8 0 0 1 22 15.8V19.2A2.8 2.8 0 0 1 19.2 22H15.8A2.8 2.8 0 0 1 13 19.2V15.8A2.8 2.8 0 0 1 15.8 13Z
    M15.8 15A0.8 0.8 0 0 0 15 15.8V19.2A0.8 0.8 0 0 0 15.8 20H19.2A0.8 0.8 0 0 0 20 19.2V15.8A0.8 0.8 0 0 0 19.2 15H15.8Z"/>
</svg>
